# xmcd
#
# Track frame offsets: 
#        150
#        11382
#        28424
#        46476
#        64166
#        75224
#        93018
#        105644
#        120854
#        137596
#        151441
#        164310
#        179994
#        204817
#        218056
#
# Disc length: 3138 seconds
#
# Revision: 0
# Processed by: cddbd v1.5.2PL0 Copyright (c) Steve Scherf et al.
# Submitted via: ExactAudioCopy v0.95b3
#
DISCID=ba0c400f
DTITLE=Hofbluesband - Mensch, Bin Ich Froh
DYEAR=2001
DGENRE=Ost-Blues
TTITLE0=God Trying To Get Your Attention
TTITLE1=Tee Na
TTITLE2=Hollywood
TTITLE3=Midnight Special
TTITLE4=Ida Jane
TTITLE5=Rucksackbulle Kurt
TTITLE6=Nobody Knows You
TTITLE7=She Just Wants To Dance
TTITLE8=Mensch,Bin Ich Froh
TTITLE9=Twenty Flight Rock
TTITLE10=San Francisco Bay
TTITLE11=Vitamine
TTITLE12=Every Day I Have The Blues
TTITLE13=Kloni
TTITLE14=My Babe
EXTD=
EXTT0=
EXTT1=
EXTT2=
EXTT3=
EXTT4=
EXTT5=
EXTT6=
EXTT7=
EXTT8=
EXTT9=
EXTT10=
EXTT11=
EXTT12=
EXTT13=
EXTT14=
PLAYORDER=
